<?xml version="1.0" encoding="UTF-8"?>
<!DOCTYPE svg PUBLIC "-//W3C//DTD SVG 1.1//EN" "http://www.w3.org/Graphics/SVG/1.1/DTD/svg11.dtd">
<!-- Creator: CorelDRAW X7 -->
<svg xmlns="http://www.w3.org/2000/svg" xml:space="preserve" width="210mm" height="297mm" version="1.1" style="shape-rendering:geometricPrecision; text-rendering:geometricPrecision; image-rendering:optimizeQuality; fill-rule:evenodd; clip-rule:evenodd"
viewBox="0 0 21000 29700"
 xmlns:xlink="http://www.w3.org/1999/xlink">
 <defs>
  <style type="text/css">
   <![CDATA[
    .fil1 {fill:#1D1D1E}
    .fil0 {fill:#1F1B20}
   ]]>
  </style>
 </defs>
 <g id="Layer_x0020_1">
  <metadata id="CorelCorpID_0Corel-Layer"/>
  <path class="fil0" d="M19364 16912l-1685 -1970c-41,-48 -41,-127 0,-176l1627 -1901c59,-70 10,-178 -82,-178l-833 0c-105,0 -204,46 -273,125l-1048 1227c-63,73 -165,73 -228,0l-1048 -1227c-69,-79 -168,-125 -273,-125l-833 0c-92,0 -141,108 -82,178l1627 1901c41,49 41,128 0,176l-1685 1970c-60,70 -10,178 82,178l832 0c105,0 205,-46 273,-126l1107 -1295c63,-73 165,-73 228,0l1107 1295c68,80 168,126 272,126l833 0c65,0 108,-54 108,-110 0,-23 -8,-47 -26,-68zm-13824 -4291l-2827 0c-609,0 -1103,494 -1103,1103l0 2262c0,610 494,1104 1103,1104l2827 0c238,0 431,-194 431,-431l0 -104c0,-237 -194,-431 -431,-431l-2571 0c-218,0 -394,-176 -394,-393l0 -393 2319 0c237,0 431,-194 431,-431l0 -104c0,-237 -194,-431 -431,-431l-2319 0 0 -393c0,-217 176,-393 394,-393l2571 0c238,0 431,-193 431,-431l0 -103c0,-238 -194,-431 -431,-431zm3912 -2l-2593 0c-228,0 -413,185 -413,413l0 139c0,228 185,413 413,413l2593 0c222,0 417,184 417,394 0,210 -195,395 -417,395l-1903 0c-609,0 -1103,494 -1103,1103l0 1201c0,227 185,413 413,413l139 0c228,0 413,-186 413,-413l0 -946c0,-217 176,-393 393,-393l1648 0c762,0 1382,-610 1382,-1360 0,-750 -620,-1359 -1382,-1359z"/>
  <path class="fil0" d="M12725 13573c40,0 93,14 121,81l902 2228 265 656c36,87 151,106 212,34l415 -484c95,-111 121,-267 66,-403l-951 -2388c-170,-413 -577,-685 -1019,-689l-23 0c-441,4 -848,276 -1018,689l-1308 3282c-51,129 -36,278 52,384 69,83 165,127 275,127l355 0c87,-1 166,-54 199,-135l434 -1073 902 -2228c28,-67 81,-81 121,-81z"/>
  <path class="fil1" d="M13713 16908l-850 -992c-58,-69 -164,-69 -222,0l-849 992c-61,72 -11,182 83,182l1754 0c94,0 144,-110 84,-182z"/>
 </g>
</svg>
