  0
SECTION
  2
HEADER
  9
$ACADVER
  1
AC1002
  9
$INSBASE
 10
0.0
 20
0.0
  9
$EXTMIN
 10
-88.9
 20
-22.4015
  9
$EXTMAX
 10
88.9001
 20
22.4225
  9
$LIMMIN
 10
0.0
 20
0.0
  9
$LIMMAX
 10
12.0
 20
9.0
  9
$ORTHOMODE
 70
     0
  9
$REGENMODE
 70
     1
  9
$FILLMODE
 70
     1
  9
$QTEXTMODE
 70
     0
  9
$DRAGMODE
 70
     2
  9
$LTSCALE
 40
1.0
  9
$OSMODE
 70
    37
  9
$ATTMODE
 70
     1
  9
$TEXTSIZE
 40
0.2
  9
$TRACEWID
 40
0.05
  9
$TEXTSTYLE
  7
STANDARD
  9
$CLAYER
  8
0
  9
$CELTYPE
  6
BYLAYER
  9
$CECOLOR
 62
   256
  9
$DIMSCALE
 40
1.0
  9
$DIMASZ
 40
0.18
  9
$DIMEXO
 40
0.0625
  9
$DIMDLI
 40
0.38
  9
$DIMRND
 40
0.0
  9
$DIMDLE
 40
0.0
  9
$DIMEXE
 40
0.18
  9
$DIMTP
 40
0.0
  9
$DIMTM
 40
0.0
  9
$DIMTXT
 40
0.18
  9
$DIMCEN
 40
0.09
  9
$DIMTSZ
 40
0.0
  9
$DIMTOL
 70
     0
  9
$DIMLIM
 70
     0
  9
$DIMTIH
 70
     1
  9
$DIMTOH
 70
     1
  9
$DIMSE1
 70
     0
  9
$DIMSE2
 70
     0
  9
$DIMTAD
 70
     0
  9
$DIMZIN
 70
     0
  9
$DIMBLK
  1

  9
$LUNITS
 70
     2
  9
$LUPREC
 70
     4
  9
$SKETCHINC
 40
0.1
  9
$FILLETRAD
 40
0.5
  9
$AUNITS
 70
     0
  9
$AUPREC
 70
     0
  9
$MENU
  1
.
  9
$ELEVATION
 40
0.0
  9
$THICKNESS
 40
0.0
  9
$LIMCHECK
 70
     0
  9
$CHAMFERA
 40
0.0
  9
$CHAMFERB
 40
0.0
  9
$SKPOLY
 70
     0
  9
$TDCREATE
 40
2459241.053394954
  9
$TDUPDATE
 40
2459241.053395
  9
$TDINDWG
 40
0.0000000116
  9
$TDUSRTIMER
 40
0.0000000116
  9
$USRTIMER
 70
     1
  9
$ANGBASE
 50
0.0
  9
$ANGDIR
 70
     0
  9
$PDMODE
 70
     0
  9
$PDSIZE
 40
0.0
  9
$PLINEWID
 40
0.0
  9
$COORDS
 70
     1
  9
$SURFTAB1
 70
     6
  9
$SURFTAB2
 70
     6
  9
$SURFTYPE
 70
     6
  9
$SURFU
 70
     6
  9
$SURFV
 70
     6
  9
$UCSNAME
  2

  9
$UCSORG
 10
0.0
 20
0.0
 30
0.0
  9
$UCSXDIR
 10
1.0
 20
0.0
 30
0.0
  9
$UCSYDIR
 10
0.0
 20
1.0
 30
0.0
  9
$USERI1
 70
     0
  9
$USERI2
 70
     0
  9
$USERI3
 70
     0
  9
$USERI4
 70
     0
  9
$USERI5
 70
     0
  9
$USERR1
 40
0.0
  9
$USERR2
 40
0.0
  9
$USERR3
 40
0.0
  9
$USERR4
 40
0.0
  9
$USERR5
 40
0.0
  0
ENDSEC
  0
SECTION
  2
TABLES
  0
TABLE
  2
LTYPE
 70
     1
  0
LTYPE
  2
CONTINUOUS
 70
     0
  3
Solid line
 72
    65
 73
     0
 40
0.0
  0
ENDTAB
  0
TABLE
  2
LAYER
 70
     2
  0
LAYER
  2
0
 70
     0
 62
     7
  6
CONTINUOUS
  0
LAYER
  2
LAYER_1
 70
     0
 62
     7
  6
CONTINUOUS
  0
ENDTAB
  0
TABLE
  2
STYLE
 70
     1
  0
STYLE
  2
STANDARD
 70
     0
 40
0.0
 41
1.0
 50
0.0
 71
     0
 42
0.2
  3
txt
  4

  0
ENDTAB
  0
TABLE
  2
VIEW
 70
     0
  0
ENDTAB
  0
ENDSEC
  0
SECTION
  2
BLOCKS
  0
ENDSEC
  0
SECTION
  2
ENTITIES
  0
POLYLINE
  8
LAYER_1
 62
   250
 66
     1
 70
     1
  0
VERTEX
  8
LAYER_1
 62
   250
 10
88.6397
 20
-20.6185
  0
VERTEX
  8
LAYER_1
 62
   250
 10
71.7896
 20
-0.9183
  0
VERTEX
  8
LAYER_1
 62
   250
 10
71.6539
 20
-0.7241
  0
VERTEX
  8
LAYER_1
 62
   250
 10
71.557
 20
-0.5082
  0
VERTEX
  8
LAYER_1
 62
   250
 10
71.4989
 20
-0.2779
  0
VERTEX
  8
LAYER_1
 62
   250
 10
71.4795
 20
-0.0404
  0
VERTEX
  8
LAYER_1
 62
   250
 10
71.4989
 20
0.1972
  0
VERTEX
  8
LAYER_1
 62
   250
 10
71.557
 20
0.4275
  0
VERTEX
  8
LAYER_1
 62
   250
 10
71.6539
 20
0.6434
  0
VERTEX
  8
LAYER_1
 62
   250
 10
71.7896
 20
0.8377
  0
VERTEX
  8
LAYER_1
 62
   250
 10
88.0551
 20
19.8543
  0
VERTEX
  8
LAYER_1
 62
   250
 10
88.2292
 20
20.1313
  0
VERTEX
  8
LAYER_1
 62
   250
 10
88.3087
 20
20.4267
  0
VERTEX
  8
LAYER_1
 62
   250
 10
88.3013
 20
20.7236
  0
VERTEX
  8
LAYER_1
 62
   250
 10
88.2149
 20
21.0047
  0
VERTEX
  8
LAYER_1
 62
   250
 10
88.0574
 20
21.2531
  0
VERTEX
  8
LAYER_1
 62
   250
 10
87.8367
 20
21.4516
  0
VERTEX
  8
LAYER_1
 62
   250
 10
87.5606
 20
21.5832
  0
VERTEX
  8
LAYER_1
 62
   250
 10
87.237
 20
21.6309
  0
VERTEX
  8
LAYER_1
 62
   250
 10
78.9083
 20
21.6309
  0
VERTEX
  8
LAYER_1
 62
   250
 10
78.5184
 20
21.6097
  0
VERTEX
  8
LAYER_1
 62
   250
 10
78.1365
 20
21.5469
  0
VERTEX
  8
LAYER_1
 62
   250
 10
77.7656
 20
21.444
  0
VERTEX
  8
LAYER_1
 62
   250
 10
77.409
 20
21.3023
  0
VERTEX
  8
LAYER_1
 62
   250
 10
77.0695
 20
21.1234
  0
VERTEX
  8
LAYER_1
 62
   250
 10
76.7503
 20
20.9085
  0
VERTEX
  8
LAYER_1
 62
   250
 10
76.4543
 20
20.6592
  0
VERTEX
  8
LAYER_1
 62
   250
 10
76.1848
 20
20.3768
  0
VERTEX
  8
LAYER_1
 62
   250
 10
65.6953
 20
8.1133
  0
VERTEX
  8
LAYER_1
 62
   250
 10
65.444
 20
7.8737
  0
VERTEX
  8
LAYER_1
 62
   250
 10
65.1647
 20
7.7026
  0
VERTEX
  8
LAYER_1
 62
   250
 10
64.8669
 20
7.5999
  0
VERTEX
  8
LAYER_1
 62
   250
 10
64.5598
 20
7.5657
  0
VERTEX
  8
LAYER_1
 62
   250
 10
64.2526
 20
7.5999
  0
VERTEX
  8
LAYER_1
 62
   250
 10
63.9548
 20
7.7026
  0
VERTEX
  8
LAYER_1
 62
   250
 10
63.6755
 20
7.8737
  0
VERTEX
  8
LAYER_1
 62
   250
 10
63.4242
 20
8.1133
  0
VERTEX
  8
LAYER_1
 62
   250
 10
52.935
 20
20.3768
  0
VERTEX
  8
LAYER_1
 62
   250
 10
52.6655
 20
20.6591
  0
VERTEX
  8
LAYER_1
 62
   250
 10
52.3695
 20
20.9084
  0
VERTEX
  8
LAYER_1
 62
   250
 10
52.0503
 20
21.1232
  0
VERTEX
  8
LAYER_1
 62
   250
 10
51.7108
 20
21.3022
  0
VERTEX
  8
LAYER_1
 62
   250
 10
51.3541
 20
21.4438
  0
VERTEX
  8
LAYER_1
 62
   250
 10
50.9833
 20
21.5468
  0
VERTEX
  8
LAYER_1
 62
   250
 10
50.6014
 20
21.6096
  0
VERTEX
  8
LAYER_1
 62
   250
 10
50.2116
 20
21.6309
  0
VERTEX
  8
LAYER_1
 62
   250
 10
41.8825
 20
21.6309
  0
VERTEX
  8
LAYER_1
 62
   250
 10
41.5588
 20
21.5832
  0
VERTEX
  8
LAYER_1
 62
   250
 10
41.2826
 20
21.4516
  0
VERTEX
  8
LAYER_1
 62
   250
 10
41.0618
 20
21.2531
  0
VERTEX
  8
LAYER_1
 62
   250
 10
40.9043
 20
21.0047
  0
VERTEX
  8
LAYER_1
 62
   250
 10
40.8179
 20
20.7236
  0
VERTEX
  8
LAYER_1
 62
   250
 10
40.8104
 20
20.4267
  0
VERTEX
  8
LAYER_1
 62
   250
 10
40.8899
 20
20.1313
  0
VERTEX
  8
LAYER_1
 62
   250
 10
41.064
 20
19.8543
  0
VERTEX
  8
LAYER_1
 62
   250
 10
57.3296
 20
0.8377
  0
VERTEX
  8
LAYER_1
 62
   250
 10
57.4651
 20
0.6434
  0
VERTEX
  8
LAYER_1
 62
   250
 10
57.562
 20
0.4275
  0
VERTEX
  8
LAYER_1
 62
   250
 10
57.6201
 20
0.1972
  0
VERTEX
  8
LAYER_1
 62
   250
 10
57.6394
 20
-0.0404
  0
VERTEX
  8
LAYER_1
 62
   250
 10
57.6201
 20
-0.2779
  0
VERTEX
  8
LAYER_1
 62
   250
 10
57.562
 20
-0.5082
  0
VERTEX
  8
LAYER_1
 62
   250
 10
57.4651
 20
-0.7241
  0
VERTEX
  8
LAYER_1
 62
   250
 10
57.3296
 20
-0.9183
  0
VERTEX
  8
LAYER_1
 62
   250
 10
40.4795
 20
-20.6185
  0
VERTEX
  8
LAYER_1
 62
   250
 10
40.3055
 20
-20.8954
  0
VERTEX
  8
LAYER_1
 62
   250
 10
40.2261
 20
-21.1908
  0
VERTEX
  8
LAYER_1
 62
   250
 10
40.2336
 20
-21.4876
  0
VERTEX
  8
LAYER_1
 62
   250
 10
40.3199
 20
-21.7687
  0
VERTEX
  8
LAYER_1
 62
   250
 10
40.4774
 20
-22.0171
  0
VERTEX
  8
LAYER_1
 62
   250
 10
40.6981
 20
-22.2157
  0
VERTEX
  8
LAYER_1
 62
   250
 10
40.9741
 20
-22.3474
  0
VERTEX
  8
LAYER_1
 62
   250
 10
41.2976
 20
-22.3951
  0
VERTEX
  8
LAYER_1
 62
   250
 10
49.6249
 20
-22.3951
  0
VERTEX
  8
LAYER_1
 62
   250
 10
50.0154
 20
-22.3738
  0
VERTEX
  8
LAYER_1
 62
   250
 10
50.3978
 20
-22.3109
  0
VERTEX
  8
LAYER_1
 62
   250
 10
50.7691
 20
-22.2077
  0
VERTEX
  8
LAYER_1
 62
   250
 10
51.1263
 20
-22.0658
  0
VERTEX
  8
LAYER_1
 62
   250
 10
51.4662
 20
-21.8865
  0
VERTEX
  8
LAYER_1
 62
   250
 10
51.7858
 20
-21.6713
  0
VERTEX
  8
LAYER_1
 62
   250
 10
52.0821
 20
-21.4216
  0
VERTEX
  8
LAYER_1
 62
   250
 10
52.3519
 20
-21.1388
  0
VERTEX
  8
LAYER_1
 62
   250
 10
63.4242
 20
-8.1942
  0
VERTEX
  8
LAYER_1
 62
   250
 10
63.6755
 20
-7.9546
  0
VERTEX
  8
LAYER_1
 62
   250
 10
63.9548
 20
-7.7834
  0
VERTEX
  8
LAYER_1
 62
   250
 10
64.2526
 20
-7.6807
  0
VERTEX
  8
LAYER_1
 62
   250
 10
64.5598
 20
-7.6465
  0
VERTEX
  8
LAYER_1
 62
   250
 10
64.8669
 20
-7.6807
  0
VERTEX
  8
LAYER_1
 62
   250
 10
65.1647
 20
-7.7834
  0
VERTEX
  8
LAYER_1
 62
   250
 10
65.444
 20
-7.9546
  0
VERTEX
  8
LAYER_1
 62
   250
 10
65.6953
 20
-8.1942
  0
VERTEX
  8
LAYER_1
 62
   250
 10
76.7673
 20
-21.1388
  0
VERTEX
  8
LAYER_1
 62
   250
 10
77.0373
 20
-21.4216
  0
VERTEX
  8
LAYER_1
 62
   250
 10
77.3336
 20
-21.6713
  0
VERTEX
  8
LAYER_1
 62
   250
 10
77.6534
 20
-21.8865
  0
VERTEX
  8
LAYER_1
 62
   250
 10
77.9934
 20
-22.0658
  0
VERTEX
  8
LAYER_1
 62
   250
 10
78.3506
 20
-22.2077
  0
VERTEX
  8
LAYER_1
 62
   250
 10
78.7219
 20
-22.3109
  0
VERTEX
  8
LAYER_1
 62
   250
 10
79.1043
 20
-22.3738
  0
VERTEX
  8
LAYER_1
 62
   250
 10
79.4946
 20
-22.3951
  0
VERTEX
  8
LAYER_1
 62
   250
 10
87.8212
 20
-22.3951
  0
VERTEX
  8
LAYER_1
 62
   250
 10
88.0533
 20
-22.3711
  0
VERTEX
  8
LAYER_1
 62
   250
 10
88.2632
 20
-22.3031
  0
VERTEX
  8
LAYER_1
 62
   250
 10
88.4479
 20
-22.197
  0
VERTEX
  8
LAYER_1
 62
   250
 10
88.6048
 20
-22.0587
  0
VERTEX
  8
LAYER_1
 62
   250
 10
88.7313
 20
-21.8942
  0
VERTEX
  8
LAYER_1
 62
   250
 10
88.8244
 20
-21.7094
  0
VERTEX
  8
LAYER_1
 62
   250
 10
88.8816
 20
-21.5103
  0
VERTEX
  8
LAYER_1
 62
   250
 10
88.9
 20
-21.3028
  0
VERTEX
  8
LAYER_1
 62
   250
 10
88.8834
 20
-21.1254
  0
VERTEX
  8
LAYER_1
 62
   250
 10
88.8356
 20
-20.9499
  0
VERTEX
  8
LAYER_1
 62
   250
 10
88.7549
 20
-20.7797
  0
VERTEX
  8
LAYER_1
 62
   250
 10
88.6397
 20
-20.6185
  0
SEQEND
  8
LAYER_1
 62
   250
  0
POLYLINE
  8
LAYER_1
 62
   250
 66
     1
 70
     1
  0
VERTEX
  8
LAYER_1
 62
   250
 10
-49.5981
 20
22.292
  0
VERTEX
  8
LAYER_1
 62
   250
 10
-77.8661
 20
22.292
  0
VERTEX
  8
LAYER_1
 62
   250
 10
-80.0898
 20
22.0678
  0
VERTEX
  8
LAYER_1
 62
   250
 10
-82.161
 20
21.4249
  0
VERTEX
  8
LAYER_1
 62
   250
 10
-84.0352
 20
20.4075
  0
VERTEX
  8
LAYER_1
 62
   250
 10
-85.6682
 20
19.0602
  0
VERTEX
  8
LAYER_1
 62
   250
 10
-87.0156
 20
17.4272
  0
VERTEX
  8
LAYER_1
 62
   250
 10
-88.0329
 20
15.5529
  0
VERTEX
  8
LAYER_1
 62
   250
 10
-88.6758
 20
13.4818
  0
VERTEX
  8
LAYER_1
 62
   250
 10
-88.9
 20
11.2582
  0
VERTEX
  8
LAYER_1
 62
   250
 10
-88.9
 20
-11.361
  0
VERTEX
  8
LAYER_1
 62
   250
 10
-88.6758
 20
-13.5848
  0
VERTEX
  8
LAYER_1
 62
   250
 10
-88.0329
 20
-15.656
  0
VERTEX
  8
LAYER_1
 62
   250
 10
-87.0156
 20
-17.5303
  0
VERTEX
  8
LAYER_1
 62
   250
 10
-85.6682
 20
-19.1633
  0
VERTEX
  8
LAYER_1
 62
   250
 10
-84.0352
 20
-20.5107
  0
VERTEX
  8
LAYER_1
 62
   250
 10
-82.161
 20
-21.528
  0
VERTEX
  8
LAYER_1
 62
   250
 10
-80.0898
 20
-22.1709
  0
VERTEX
  8
LAYER_1
 62
   250
 10
-77.8661
 20
-22.3951
  0
VERTEX
  8
LAYER_1
 62
   250
 10
-49.5981
 20
-22.3951
  0
VERTEX
  8
LAYER_1
 62
   250
 10
-48.7316
 20
-22.3073
  0
VERTEX
  8
LAYER_1
 62
   250
 10
-47.9237
 20
-22.0556
  0
VERTEX
  8
LAYER_1
 62
   250
 10
-47.192
 20
-21.6575
  0
VERTEX
  8
LAYER_1
 62
   250
 10
-46.5539
 20
-21.1306
  0
VERTEX
  8
LAYER_1
 62
   250
 10
-46.0271
 20
-20.4925
  0
VERTEX
  8
LAYER_1
 62
   250
 10
-45.6291
 20
-19.7608
  0
VERTEX
  8
LAYER_1
 62
   250
 10
-45.3774
 20
-18.953
  0
VERTEX
  8
LAYER_1
 62
   250
 10
-45.2896
 20
-18.0866
  0
VERTEX
  8
LAYER_1
 62
   250
 10
-45.2896
 20
-17.0484
  0
VERTEX
  8
LAYER_1
 62
   250
 10
-45.3775
 20
-16.1822
  0
VERTEX
  8
LAYER_1
 62
   250
 10
-45.6293
 20
-15.3744
  0
VERTEX
  8
LAYER_1
 62
   250
 10
-46.0275
 20
-14.6428
  0
VERTEX
  8
LAYER_1
 62
   250
 10
-46.5545
 20
-14.0048
  0
VERTEX
  8
LAYER_1
 62
   250
 10
-47.1926
 20
-13.4779
  0
VERTEX
  8
LAYER_1
 62
   250
 10
-47.9243
 20
-13.0799
  0
VERTEX
  8
LAYER_1
 62
   250
 10
-48.732
 20
-12.8282
  0
VERTEX
  8
LAYER_1
 62
   250
 10
-49.5981
 20
-12.7404
  0
VERTEX
  8
LAYER_1
 62
   250
 10
-75.3146
 20
-12.7404
  0
VERTEX
  8
LAYER_1
 62
   250
 10
-76.1068
 20
-12.6605
  0
VERTEX
  8
LAYER_1
 62
   250
 10
-76.8447
 20
-12.4315
  0
VERTEX
  8
LAYER_1
 62
   250
 10
-77.5125
 20
-12.069
  0
VERTEX
  8
LAYER_1
 62
   250
 10
-78.0942
 20
-11.589
  0
VERTEX
  8
LAYER_1
 62
   250
 10
-78.5742
 20
-11.0073
  0
VERTEX
  8
LAYER_1
 62
   250
 10
-78.9366
 20
-10.3396
  0
VERTEX
  8
LAYER_1
 62
   250
 10
-79.1656
 20
-9.6017
  0
VERTEX
  8
LAYER_1
 62
   250
 10
-79.2455
 20
-8.8095
  0
VERTEX
  8
LAYER_1
 62
   250
 10
-79.2455
 20
-4.8787
  0
VERTEX
  8
LAYER_1
 62
   250
 10
-56.063
 20
-4.8787
  0
VERTEX
  8
LAYER_1
 62
   250
 10
-55.1967
 20
-4.7909
  0
VERTEX
  8
LAYER_1
 62
   250
 10
-54.3889
 20
-4.5392
  0
VERTEX
  8
LAYER_1
 62
   250
 10
-53.6573
 20
-4.1412
  0
VERTEX
  8
LAYER_1
 62
   250
 10
-53.0193
 20
-3.6145
  0
VERTEX
  8
LAYER_1
 62
   250
 10
-52.4925
 20
-2.9765
  0
VERTEX
  8
LAYER_1
 62
   250
 10
-52.0945
 20
-2.2448
  0
VERTEX
  8
LAYER_1
 62
   250
 10
-51.8428
 20
-1.437
  0
VERTEX
  8
LAYER_1
 62
   250
 10
-51.755
 20
-0.5707
  0
VERTEX
  8
LAYER_1
 62
   250
 10
-51.755
 20
0.4674
  0
VERTEX
  8
LAYER_1
 62
   250
 10
-51.8429
 20
1.3338
  0
VERTEX
  8
LAYER_1
 62
   250
 10
-52.0947
 20
2.1416
  0
VERTEX
  8
LAYER_1
 62
   250
 10
-52.4929
 20
2.8734
  0
VERTEX
  8
LAYER_1
 62
   250
 10
-53.0198
 20
3.5114
  0
VERTEX
  8
LAYER_1
 62
   250
 10
-53.6579
 20
4.0382
  0
VERTEX
  8
LAYER_1
 62
   250
 10
-54.3895
 20
4.4362
  0
VERTEX
  8
LAYER_1
 62
   250
 10
-55.1971
 20
4.6879
  0
VERTEX
  8
LAYER_1
 62
   250
 10
-56.063
 20
4.7757
  0
VERTEX
  8
LAYER_1
 62
   250
 10
-79.2455
 20
4.7757
  0
VERTEX
  8
LAYER_1
 62
   250
 10
-79.2455
 20
8.7064
  0
VERTEX
  8
LAYER_1
 62
   250
 10
-79.1656
 20
9.4986
  0
VERTEX
  8
LAYER_1
 62
   250
 10
-78.9366
 20
10.2365
  0
VERTEX
  8
LAYER_1
 62
   250
 10
-78.5742
 20
10.9043
  0
VERTEX
  8
LAYER_1
 62
   250
 10
-78.0942
 20
11.486
  0
VERTEX
  8
LAYER_1
 62
   250
 10
-77.5124
 20
11.966
  0
VERTEX
  8
LAYER_1
 62
   250
 10
-76.8447
 20
12.3284
  0
VERTEX
  8
LAYER_1
 62
   250
 10
-76.1068
 20
12.5574
  0
VERTEX
  8
LAYER_1
 62
   250
 10
-75.3146
 20
12.6373
  0
VERTEX
  8
LAYER_1
 62
   250
 10
-49.5981
 20
12.6373
  0
VERTEX
  8
LAYER_1
 62
   250
 10
-48.7316
 20
12.7251
  0
VERTEX
  8
LAYER_1
 62
   250
 10
-47.9237
 20
12.9768
  0
VERTEX
  8
LAYER_1
 62
   250
 10
-47.192
 20
13.3749
  0
VERTEX
  8
LAYER_1
 62
   250
 10
-46.5539
 20
13.9017
  0
VERTEX
  8
LAYER_1
 62
   250
 10
-46.0271
 20
14.5398
  0
VERTEX
  8
LAYER_1
 62
   250
 10
-45.6291
 20
15.2715
  0
VERTEX
  8
LAYER_1
 62
   250
 10
-45.3774
 20
16.0793
  0
VERTEX
  8
LAYER_1
 62
   250
 10
-45.2896
 20
16.9457
  0
VERTEX
  8
LAYER_1
 62
   250
 10
-45.2896
 20
17.9835
  0
VERTEX
  8
LAYER_1
 62
   250
 10
-45.3775
 20
18.85
  0
VERTEX
  8
LAYER_1
 62
   250
 10
-45.6293
 20
19.6579
  0
VERTEX
  8
LAYER_1
 62
   250
 10
-46.0275
 20
20.3896
  0
VERTEX
  8
LAYER_1
 62
   250
 10
-46.5545
 20
21.0277
  0
VERTEX
  8
LAYER_1
 62
   250
 10
-47.1926
 20
21.5545
  0
VERTEX
  8
LAYER_1
 62
   250
 10
-47.9243
 20
21.9525
  0
VERTEX
  8
LAYER_1
 62
   250
 10
-48.732
 20
22.2042
  0
VERTEX
  8
LAYER_1
 62
   250
 10
-49.5981
 20
22.292
  0
SEQEND
  8
LAYER_1
 62
   250
  0
POLYLINE
  8
LAYER_1
 62
   250
 66
     1
 70
     1
  0
VERTEX
  8
LAYER_1
 62
   250
 10
-10.4782
 20
22.3139
  0
VERTEX
  8
LAYER_1
 62
   250
 10
-36.4137
 20
22.3139
  0
VERTEX
  8
LAYER_1
 62
   250
 10
-37.244
 20
22.2298
  0
VERTEX
  8
LAYER_1
 62
   250
 10
-38.0182
 20
21.9886
  0
VERTEX
  8
LAYER_1
 62
   250
 10
-38.7194
 20
21.6072
  0
VERTEX
  8
LAYER_1
 62
   250
 10
-39.3309
 20
21.1023
  0
VERTEX
  8
LAYER_1
 62
   250
 10
-39.8358
 20
20.4909
  0
VERTEX
  8
LAYER_1
 62
   250
 10
-40.2172
 20
19.7896
  0
VERTEX
  8
LAYER_1
 62
   250
 10
-40.4585
 20
19.0154
  0
VERTEX
  8
LAYER_1
 62
   250
 10
-40.5426
 20
18.185
  0
VERTEX
  8
LAYER_1
 62
   250
 10
-40.5426
 20
16.7883
  0
VERTEX
  8
LAYER_1
 62
   250
 10
-40.4585
 20
15.958
  0
VERTEX
  8
LAYER_1
 62
   250
 10
-40.2172
 20
15.1838
  0
VERTEX
  8
LAYER_1
 62
   250
 10
-39.8358
 20
14.4826
  0
VERTEX
  8
LAYER_1
 62
   250
 10
-39.3309
 20
13.8712
  0
VERTEX
  8
LAYER_1
 62
   250
 10
-38.7194
 20
13.3663
  0
VERTEX
  8
LAYER_1
 62
   250
 10
-38.0182
 20
12.9848
  0
VERTEX
  8
LAYER_1
 62
   250
 10
-37.244
 20
12.7436
  0
VERTEX
  8
LAYER_1
 62
   250
 10
-36.4137
 20
12.6595
  0
VERTEX
  8
LAYER_1
 62
   250
 10
-10.4782
 20
12.6595
  0
VERTEX
  8
LAYER_1
 62
   250
 10
-9.6617
 20
12.5762
  0
VERTEX
  8
LAYER_1
 62
   250
 10
-8.8905
 20
12.3388
  0
VERTEX
  8
LAYER_1
 62
   250
 10
-8.184
 20
11.9659
  0
VERTEX
  8
LAYER_1
 62
   250
 10
-7.562
 20
11.4759
  0
VERTEX
  8
LAYER_1
 62
   250
 10
-7.044
 20
10.8876
  0
VERTEX
  8
LAYER_1
 62
   250
 10
-6.6498
 20
10.2195
  0
VERTEX
  8
LAYER_1
 62
   250
 10
-6.3988
 20
9.4903
  0
VERTEX
  8
LAYER_1
 62
   250
 10
-6.3108
 20
8.7184
  0
VERTEX
  8
LAYER_1
 62
   250
 10
-6.3988
 20
7.9457
  0
VERTEX
  8
LAYER_1
 62
   250
 10
-6.6498
 20
7.2157
  0
VERTEX
  8
LAYER_1
 62
   250
 10
-7.044
 20
6.5472
  0
VERTEX
  8
LAYER_1
 62
   250
 10
-7.562
 20
5.9586
  0
VERTEX
  8
LAYER_1
 62
   250
 10
-8.184
 20
5.4684
  0
VERTEX
  8
LAYER_1
 62
   250
 10
-8.8905
 20
5.0953
  0
VERTEX
  8
LAYER_1
 62
   250
 10
-9.6617
 20
4.8579
  0
VERTEX
  8
LAYER_1
 62
   250
 10
-10.4782
 20
4.7746
  0
VERTEX
  8
LAYER_1
 62
   250
 10
-29.5088
 20
4.7746
  0
VERTEX
  8
LAYER_1
 62
   250
 10
-31.7324
 20
4.5504
  0
VERTEX
  8
LAYER_1
 62
   250
 10
-33.8035
 20
3.9075
  0
VERTEX
  8
LAYER_1
 62
   250
 10
-35.6778
 20
2.8902
  0
VERTEX
  8
LAYER_1
 62
   250
 10
-37.3108
 20
1.5429
  0
VERTEX
  8
LAYER_1
 62
   250
 10
-38.6581
 20
-0.0901
  0
VERTEX
  8
LAYER_1
 62
   250
 10
-39.6755
 20
-1.9643
  0
VERTEX
  8
LAYER_1
 62
   250
 10
-40.3184
 20
-4.0355
  0
VERTEX
  8
LAYER_1
 62
   250
 10
-40.5426
 20
-6.2592
  0
VERTEX
  8
LAYER_1
 62
   250
 10
-40.5426
 20
-18.2662
  0
VERTEX
  8
LAYER_1
 62
   250
 10
-40.4585
 20
-19.0965
  0
VERTEX
  8
LAYER_1
 62
   250
 10
-40.2172
 20
-19.8706
  0
VERTEX
  8
LAYER_1
 62
   250
 10
-39.8358
 20
-20.5719
  0
VERTEX
  8
LAYER_1
 62
   250
 10
-39.3309
 20
-21.1834
  0
VERTEX
  8
LAYER_1
 62
   250
 10
-38.7194
 20
-21.6883
  0
VERTEX
  8
LAYER_1
 62
   250
 10
-38.0182
 20
-22.0697
  0
VERTEX
  8
LAYER_1
 62
   250
 10
-37.244
 20
-22.311
  0
VERTEX
  8
LAYER_1
 62
   250
 10
-36.4137
 20
-22.3951
  0
VERTEX
  8
LAYER_1
 62
   250
 10
-35.0171
 20
-22.3951
  0
VERTEX
  8
LAYER_1
 62
   250
 10
-34.1868
 20
-22.311
  0
VERTEX
  8
LAYER_1
 62
   250
 10
-33.4126
 20
-22.0697
  0
VERTEX
  8
LAYER_1
 62
   250
 10
-32.7114
 20
-21.6883
  0
VERTEX
  8
LAYER_1
 62
   250
 10
-32.0999
 20
-21.1834
  0
VERTEX
  8
LAYER_1
 62
   250
 10
-31.595
 20
-20.5719
  0
VERTEX
  8
LAYER_1
 62
   250
 10
-31.2136
 20
-19.8706
  0
VERTEX
  8
LAYER_1
 62
   250
 10
-30.9723
 20
-19.0965
  0
VERTEX
  8
LAYER_1
 62
   250
 10
-30.8882
 20
-18.2662
  0
VERTEX
  8
LAYER_1
 62
   250
 10
-30.8882
 20
-8.8109
  0
VERTEX
  8
LAYER_1
 62
   250
 10
-30.8083
 20
-8.0186
  0
VERTEX
  8
LAYER_1
 62
   250
 10
-30.5793
 20
-7.2807
  0
VERTEX
  8
LAYER_1
 62
   250
 10
-30.2169
 20
-6.6129
  0
VERTEX
  8
LAYER_1
 62
   250
 10
-29.7369
 20
-6.0311
  0
VERTEX
  8
LAYER_1
 62
   250
 10
-29.1551
 20
-5.551
  0
VERTEX
  8
LAYER_1
 62
   250
 10
-28.4874
 20
-5.1886
  0
VERTEX
  8
LAYER_1
 62
   250
 10
-27.7496
 20
-4.9595
  0
VERTEX
  8
LAYER_1
 62
   250
 10
-26.9575
 20
-4.8796
  0
VERTEX
  8
LAYER_1
 62
   250
 10
-10.4782
 20
-4.8796
  0
VERTEX
  8
LAYER_1
 62
   250
 10
-7.6962
 20
-4.6028
  0
VERTEX
  8
LAYER_1
 62
   250
 10
-5.1033
 20
-3.8092
  0
VERTEX
  8
LAYER_1
 62
   250
 10
-2.7557
 20
-2.5538
  0
VERTEX
  8
LAYER_1
 62
   250
 10
-0.7092
 20
-0.8919
  0
VERTEX
  8
LAYER_1
 62
   250
 10
0.98
 20
1.1214
  0
VERTEX
  8
LAYER_1
 62
   250
 10
2.256
 20
3.431
  0
VERTEX
  8
LAYER_1
 62
   250
 10
3.0627
 20
5.9817
  0
VERTEX
  8
LAYER_1
 62
   250
 10
3.344
 20
8.7184
  0
VERTEX
  8
LAYER_1
 62
   250
 10
3.0627
 20
11.455
  0
VERTEX
  8
LAYER_1
 62
   250
 10
2.256
 20
14.0054
  0
VERTEX
  8
LAYER_1
 62
   250
 10
0.98
 20
16.3145
  0
VERTEX
  8
LAYER_1
 62
   250
 10
-0.7092
 20
18.3274
  0
VERTEX
  8
LAYER_1
 62
   250
 10
-2.7557
 20
19.9889
  0
VERTEX
  8
LAYER_1
 62
   250
 10
-5.1033
 20
21.2438
  0
VERTEX
  8
LAYER_1
 62
   250
 10
-7.6962
 20
22.0372
  0
VERTEX
  8
LAYER_1
 62
   250
 10
-10.4782
 20
22.3139
  0
SEQEND
  8
LAYER_1
 62
   250
  0
POLYLINE
  8
LAYER_1
 62
   250
 66
     1
 70
     1
  0
VERTEX
  8
LAYER_1
 62
   250
 10
22.2493
 20
12.769
  0
VERTEX
  8
LAYER_1
 62
   250
 10
22.4044
 20
12.7617
  0
VERTEX
  8
LAYER_1
 62
   250
 10
22.5675
 20
12.7367
  0
VERTEX
  8
LAYER_1
 62
   250
 10
22.7341
 20
12.6894
  0
VERTEX
  8
LAYER_1
 62
   250
 10
22.8995
 20
12.6154
  0
VERTEX
  8
LAYER_1
 62
   250
 10
23.059
 20
12.5101
  0
VERTEX
  8
LAYER_1
 62
   250
 10
23.2081
 20
12.3689
  0
VERTEX
  8
LAYER_1
 62
   250
 10
23.342
 20
12.1873
  0
VERTEX
  8
LAYER_1
 62
   250
 10
23.4562
 20
11.9608
  0
VERTEX
  8
LAYER_1
 62
   250
 10
32.481
 20
-10.3215
  0
VERTEX
  8
LAYER_1
 62
   250
 10
35.1335
 20
-16.8791
  0
VERTEX
  8
LAYER_1
 62
   250
 10
35.3009
 20
-17.174
  0
VERTEX
  8
LAYER_1
 62
   250
 10
35.5276
 20
-17.402
  0
VERTEX
  8
LAYER_1
 62
   250
 10
35.7978
 20
-17.5608
  0
VERTEX
  8
LAYER_1
 62
   250
 10
36.0958
 20
-17.6476
  0
VERTEX
  8
LAYER_1
 62
   250
 10
36.406
 20
-17.6599
  0
VERTEX
  8
LAYER_1
 62
   250
 10
36.7126
 20
-17.5952
  0
VERTEX
  8
LAYER_1
 62
   250
 10
36.9999
 20
-17.4509
  0
VERTEX
  8
LAYER_1
 62
   250
 10
37.2523
 20
-17.2244
  0
VERTEX
  8
LAYER_1
 62
   250
 10
41.396
 20
-12.3798
  0
VERTEX
  8
LAYER_1
 62
   250
 10
41.7205
 20
-11.9426
  0
VERTEX
  8
LAYER_1
 62
   250
 10
41.9785
 20
-11.4718
  0
VERTEX
  8
LAYER_1
 62
   250
 10
42.1689
 20
-10.9748
  0
VERTEX
  8
LAYER_1
 62
   250
 10
42.2904
 20
-10.4589
  0
VERTEX
  8
LAYER_1
 62
   250
 10
42.3417
 20
-9.9314
  0
VERTEX
  8
LAYER_1
 62
   250
 10
42.3218
 20
-9.3996
  0
VERTEX
  8
LAYER_1
 62
   250
 10
42.2293
 20
-8.8708
  0
VERTEX
  8
LAYER_1
 62
   250
 10
42.0631
 20
-8.3524
  0
VERTEX
  8
LAYER_1
 62
   250
 10
32.549
 20
15.5254
  0
VERTEX
  8
LAYER_1
 62
   250
 10
31.8032
 20
17.0084
  0
VERTEX
  8
LAYER_1
 62
   250
 10
30.8595
 20
18.343
  0
VERTEX
  8
LAYER_1
 62
   250
 10
29.7416
 20
19.5146
  0
VERTEX
  8
LAYER_1
 62
   250
 10
28.4729
 20
20.5089
  0
VERTEX
  8
LAYER_1
 62
   250
 10
27.0772
 20
21.3114
  0
VERTEX
  8
LAYER_1
 62
   250
 10
25.5781
 20
21.9074
  0
VERTEX
  8
LAYER_1
 62
   250
 10
23.9992
 20
22.2826
  0
VERTEX
  8
LAYER_1
 62
   250
 10
22.3641
 20
22.4225
  0
VERTEX
  8
LAYER_1
 62
   250
 10
22.1345
 20
22.4225
  0
VERTEX
  8
LAYER_1
 62
   250
 10
20.4995
 20
22.2826
  0
VERTEX
  8
LAYER_1
 62
   250
 10
18.9207
 20
21.9074
  0
VERTEX
  8
LAYER_1
 62
   250
 10
17.4217
 20
21.3114
  0
VERTEX
  8
LAYER_1
 62
   250
 10
16.026
 20
20.5089
  0
VERTEX
  8
LAYER_1
 62
   250
 10
14.7574
 20
19.5146
  0
VERTEX
  8
LAYER_1
 62
   250
 10
13.6395
 20
18.343
  0
VERTEX
  8
LAYER_1
 62
   250
 10
12.6958
 20
17.0084
  0
VERTEX
  8
LAYER_1
 62
   250
 10
11.95
 20
15.5254
  0
VERTEX
  8
LAYER_1
 62
   250
 10
-1.1268
 20
-17.2931
  0
VERTEX
  8
LAYER_1
 62
   250
 10
-1.2875
 20
-17.7829
  0
VERTEX
  8
LAYER_1
 62
   250
 10
-1.3857
 20
-18.2852
  0
VERTEX
  8
LAYER_1
 62
   250
 10
-1.4203
 20
-18.7924
  0
VERTEX
  8
LAYER_1
 62
   250
 10
-1.3905
 20
-19.2968
  0
VERTEX
  8
LAYER_1
 62
   250
 10
-1.2953
 20
-19.7908
  0
VERTEX
  8
LAYER_1
 62
   250
 10
-1.1337
 20
-20.2668
  0
VERTEX
  8
LAYER_1
 62
   250
 10
-0.9049
 20
-20.7171
  0
VERTEX
  8
LAYER_1
 62
   250
 10
-0.6078
 20
-21.1342
  0
VERTEX
  8
LAYER_1
 62
   250
 10
-0.3384
 20
-21.4247
  0
VERTEX
  8
LAYER_1
 62
   250
 10
-0.0446
 20
-21.6793
  0
VERTEX
  8
LAYER_1
 62
   250
 10
0.2719
 20
-21.8969
  0
VERTEX
  8
LAYER_1
 62
   250
 10
0.6095
 20
-22.0768
  0
VERTEX
  8
LAYER_1
 62
   250
 10
0.9666
 20
-22.2181
  0
VERTEX
  8
LAYER_1
 62
   250
 10
1.3415
 20
-22.3199
  0
VERTEX
  8
LAYER_1
 62
   250
 10
1.7326
 20
-22.3813
  0
VERTEX
  8
LAYER_1
 62
   250
 10
2.1382
 20
-22.4014
  0
VERTEX
  8
LAYER_1
 62
   250
 10
5.6861
 20
-22.3953
  0
VERTEX
  8
LAYER_1
 62
   250
 10
6.0098
 20
-22.3703
  0
VERTEX
  8
LAYER_1
 62
   250
 10
6.3209
 20
-22.2985
  0
VERTEX
  8
LAYER_1
 62
   250
 10
6.615
 20
-22.1829
  0
VERTEX
  8
LAYER_1
 62
   250
 10
6.8878
 20
-22.0263
  0
VERTEX
  8
LAYER_1
 62
   250
 10
7.1349
 20
-21.8317
  0
VERTEX
  8
LAYER_1
 62
   250
 10
7.3519
 20
-21.6021
  0
VERTEX
  8
LAYER_1
 62
   250
 10
7.5346
 20
-21.3403
  0
VERTEX
  8
LAYER_1
 62
   250
 10
7.6786
 20
-21.0493
  0
VERTEX
  8
LAYER_1
 62
   250
 10
12.0177
 20
-10.3215
  0
VERTEX
  8
LAYER_1
 62
   250
 10
21.0425
 20
11.9608
  0
VERTEX
  8
LAYER_1
 62
   250
 10
21.1568
 20
12.1873
  0
VERTEX
  8
LAYER_1
 62
   250
 10
21.2908
 20
12.3689
  0
VERTEX
  8
LAYER_1
 62
   250
 10
21.4398
 20
12.5101
  0
VERTEX
  8
LAYER_1
 62
   250
 10
21.5993
 20
12.6154
  0
VERTEX
  8
LAYER_1
 62
   250
 10
21.7645
 20
12.6894
  0
VERTEX
  8
LAYER_1
 62
   250
 10
21.9311
 20
12.7367
  0
VERTEX
  8
LAYER_1
 62
   250
 10
22.0942
 20
12.7617
  0
VERTEX
  8
LAYER_1
 62
   250
 10
22.2493
 20
12.769
  0
SEQEND
  8
LAYER_1
 62
   250
  0
POLYLINE
  8
LAYER_1
 62
   250
 66
     1
 70
     1
  0
VERTEX
  8
LAYER_1
 62
   250
 10
32.125
 20
-20.5832
  0
VERTEX
  8
LAYER_1
 62
   250
 10
23.634
 20
-10.6561
  0
VERTEX
  8
LAYER_1
 62
   250
 10
23.3946
 20
-10.4319
  0
VERTEX
  8
LAYER_1
 62
   250
 10
23.122
 20
-10.2718
  0
VERTEX
  8
LAYER_1
 62
   250
 10
22.8273
 20
-10.1757
  0
VERTEX
  8
LAYER_1
 62
   250
 10
22.5215
 20
-10.1437
  0
VERTEX
  8
LAYER_1
 62
   250
 10
22.2157
 20
-10.1757
  0
VERTEX
  8
LAYER_1
 62
   250
 10
21.921
 20
-10.2718
  0
VERTEX
  8
LAYER_1
 62
   250
 10
21.6484
 20
-10.4319
  0
VERTEX
  8
LAYER_1
 62
   250
 10
21.409
 20
-10.6561
  0
VERTEX
  8
LAYER_1
 62
   250
 10
12.918
 20
-20.5832
  0
VERTEX
  8
LAYER_1
 62
   250
 10
12.7405
 20
-20.8655
  0
VERTEX
  8
LAYER_1
 62
   250
 10
12.6595
 20
-21.1668
  0
VERTEX
  8
LAYER_1
 62
   250
 10
12.667
 20
-21.4695
  0
VERTEX
  8
LAYER_1
 62
   250
 10
12.7551
 20
-21.7562
  0
VERTEX
  8
LAYER_1
 62
   250
 10
12.9157
 20
-22.0096
  0
VERTEX
  8
LAYER_1
 62
   250
 10
13.1407
 20
-22.2121
  0
VERTEX
  8
LAYER_1
 62
   250
 10
13.4223
 20
-22.3465
  0
VERTEX
  8
LAYER_1
 62
   250
 10
13.7523
 20
-22.3951
  0
VERTEX
  8
LAYER_1
 62
   250
 10
31.2903
 20
-22.3951
  0
VERTEX
  8
LAYER_1
 62
   250
 10
31.6203
 20
-22.3465
  0
VERTEX
  8
LAYER_1
 62
   250
 10
31.9019
 20
-22.2121
  0
VERTEX
  8
LAYER_1
 62
   250
 10
32.127
 20
-22.0096
  0
VERTEX
  8
LAYER_1
 62
   250
 10
32.2877
 20
-21.7562
  0
VERTEX
  8
LAYER_1
 62
   250
 10
32.3758
 20
-21.4695
  0
VERTEX
  8
LAYER_1
 62
   250
 10
32.3834
 20
-21.1668
  0
VERTEX
  8
LAYER_1
 62
   250
 10
32.3025
 20
-20.8655
  0
VERTEX
  8
LAYER_1
 62
   250
 10
32.125
 20
-20.5832
  0
SEQEND
  8
LAYER_1
 62
   250
  0
ENDSEC
  0
EOF
